<svg viewBox="0 0 32 32" fill="none" xmlns="http://www.w3.org/2000/svg">
    <path d="M23.2666 30.3333C21.76 30.3333 20.1733 29.9733 18.5333 29.28C16.9333 28.6 15.32 27.6667 13.7466 26.5333C12.1733 25.3867 10.6666 24.0933 9.25329 22.6933C7.83996 21.2667 6.55996 19.76 5.42663 18.2133C4.27996 16.6133 3.35996 15.0267 2.70663 13.4667C2.01329 11.8267 1.66663 10.2267 1.66663 8.71999C1.66663 7.67999 1.85329 6.69332 2.21329 5.77332C2.59996 4.81332 3.18663 3.94666 3.99996 3.18666C5.02663 2.18666 6.19996 1.66666 7.45329 1.66666C7.97329 1.66666 8.50663 1.78666 8.95996 1.99999C9.47996 2.23999 9.91996 2.59999 10.24 3.07999L13.3333 7.43999C13.6133 7.82666 13.8266 8.19999 13.9733 8.57332C14.1466 8.97332 14.24 9.37332 14.24 9.75999C14.24 10.2667 14.0933 10.76 13.8133 11.2267C13.6133 11.5867 13.3066 11.9733 12.92 12.36L12.0133 13.3067C12.0266 13.3467 12.04 13.3733 12.0533 13.4C12.2133 13.68 12.5333 14.16 13.1466 14.88C13.7866 15.6267 14.4133 16.2933 15.0266 16.9333C15.8266 17.72 16.4666 18.32 17.08 18.8267C17.84 19.4667 18.3333 19.7867 18.6266 19.9333L18.6 20L19.5733 19.04C19.9866 18.6267 20.3866 18.32 20.7733 18.12C21.5066 17.6667 22.44 17.5867 23.3733 17.9733C23.72 18.12 24.0933 18.32 24.4933 18.6L28.92 21.7467C29.4 22.08 29.7733 22.5067 29.9866 23.0133C30.1866 23.52 30.28 23.9867 30.28 24.4533C30.28 25.0933 30.1333 25.7333 29.8533 26.3333C29.5733 26.9333 29.2266 27.4533 28.7866 27.9333C28.0266 28.7733 27.2 29.3733 26.24 29.76C25.32 30.1333 24.32 30.3333 23.2666 30.3333ZM7.45329 3.66666C6.71996 3.66666 6.03996 3.98666 5.38663 4.62666C4.78663 5.19999 4.34663 5.82666 4.07996 6.50666C3.79996 7.19999 3.66663 7.93332 3.66663 8.71999C3.66663 9.95999 3.95996 11.3067 4.54663 12.6933C5.14663 14.1067 5.98663 15.5733 7.05329 17.04C8.11996 18.5067 9.33329 19.9333 10.6666 21.28C12 22.6 13.44 23.8267 14.92 24.9067C16.36 25.96 17.84 26.8133 19.3066 27.4267C21.5866 28.4 23.72 28.6267 25.48 27.8933C26.16 27.6133 26.76 27.1867 27.3066 26.5733C27.6133 26.24 27.8533 25.88 28.0533 25.4533C28.2133 25.12 28.2933 24.7733 28.2933 24.4267C28.2933 24.2133 28.2533 24 28.1466 23.76C28.12 23.6933 28.0266 23.5333 27.7733 23.36L23.3466 20.2133C23.08 20.0267 22.84 19.8933 22.6133 19.8C22.2666 19.6667 22.04 19.6533 21.7466 19.84C21.48 19.9733 21.24 20.1733 20.9733 20.44L19.96 21.44C19.44 21.9467 18.64 22.0667 18.0266 21.84L17.6666 21.68C17.12 21.3867 16.48 20.9333 15.7733 20.3333C15.12 19.7867 14.4533 19.16 13.6 18.32C12.9333 17.64 12.2933 16.9333 11.6133 16.16C10.9866 15.4267 10.5333 14.8 10.2533 14.28L10.08 13.88C9.99996 13.5867 9.97329 13.4133 9.97329 13.2267C9.97329 12.7467 10.1466 12.32 10.48 11.9867L11.48 10.9467C11.7466 10.68 11.9466 10.4267 12.08 10.2C12.1866 10.0267 12.2266 9.87999 12.2266 9.74666C12.2266 9.63999 12.1866 9.47999 12.12 9.31999C12.04 9.09332 11.8933 8.86666 11.7066 8.59999L8.61329 4.22666C8.47996 4.03999 8.31996 3.90666 8.11996 3.81332C7.90663 3.71999 7.67996 3.66666 7.45329 3.66666ZM18.6 20.0133L18.3866 20.92L18.7466 19.9867C18.6933 19.9733 18.64 19.9867 18.6 20.0133Z" fill="#6A50BA"/>
    <path d="M22.6666 11.6267C22.4133 11.6267 22.16 11.5334 21.96 11.3334L19.2933 8.66669C18.9066 8.28003 18.9066 7.64003 19.2933 7.25336C19.68 6.86669 20.32 6.86669 20.7066 7.25336L22.6666 9.21336L27.2933 4.60003C27.68 4.21336 28.32 4.21336 28.7066 4.60003C29.0933 4.98669 29.0933 5.6267 28.7066 6.01336L23.3733 11.3467C23.1733 11.52 22.92 11.6267 22.6666 11.6267Z" fill="#6A50BA"/>
</svg>
