<svg viewBox="0 0 32 32" fill="none" xmlns="http://www.w3.org/2000/svg">
    <path d="M22.6666 28.0533H9.33329C5.10663 28.0533 1.66663 24.6133 1.66663 20.3867V7.61334C1.66663 5.88001 2.46663 5.28001 2.94663 5.08001C3.42663 4.88001 4.41329 4.73334 5.63996 5.96001L9.09329 9.41334C9.22663 9.54668 9.43996 9.54668 9.55996 9.41334L14.3466 4.62667C15.2266 3.74667 16.7733 3.74667 17.64 4.62667L22.4266 9.41334C22.56 9.54668 22.7733 9.54668 22.8933 9.41334L26.3466 5.96001C27.5733 4.73334 28.56 4.89334 29.04 5.08001C29.52 5.28001 30.32 5.86668 30.32 7.61334V20.4C30.3333 24.9733 27.2533 28.0533 22.6666 28.0533ZM3.74663 6.98667C3.70663 7.09334 3.66663 7.29334 3.66663 7.61334V20.4C3.66663 23.52 6.21329 26.0667 9.33329 26.0667H22.6666C26.1066 26.0667 28.3333 23.84 28.3333 20.4V7.61334C28.3333 7.29334 28.2933 7.10667 28.2533 7.00001C28.1466 7.05334 27.9866 7.16001 27.76 7.38667L24.3066 10.84C23.4266 11.72 21.88 11.72 21.0133 10.84L16.2266 6.05334C16.0933 5.92001 15.88 5.92001 15.76 6.05334L10.9866 10.8267C10.1066 11.7067 8.55996 11.7067 7.69329 10.8267L4.23996 7.37334C4.01329 7.14668 3.83996 7.04001 3.74663 6.98667Z" fill="#6A50BA"/>
</svg>
