<svg viewBox="0 0 32 32" fill="none" xmlns="http://www.w3.org/2000/svg">
    <path d="M23.9997 10.5467C23.9597 10.5467 23.9331 10.5467 23.8931 10.5467H23.8264C21.3064 10.4667 19.4264 8.52003 19.4264 6.12003C19.4264 3.66669 21.4264 1.68002 23.8664 1.68002C26.3064 1.68002 28.3064 3.68003 28.3064 6.12003C28.2931 8.53336 26.4131 10.48 24.0131 10.56C24.0131 10.5467 24.0131 10.5467 23.9997 10.5467ZM23.8664 3.6667C22.5197 3.6667 21.4264 4.76003 21.4264 6.1067C21.4264 7.4267 22.4531 8.49337 23.7731 8.5467C23.7864 8.53337 23.8931 8.53337 24.0131 8.5467C25.3064 8.48004 26.3064 7.41337 26.3197 6.1067C26.3197 4.76003 25.2264 3.6667 23.8664 3.6667Z" fill="#6A50BA"/>
    <path d="M24.0134 20.3734C23.4934 20.3734 22.9734 20.3334 22.4534 20.24C21.9067 20.1467 21.5467 19.6267 21.64 19.08C21.7334 18.5334 22.2534 18.1734 22.8 18.2667C24.44 18.5467 26.1734 18.24 27.3334 17.4667C27.96 17.0534 28.2934 16.5334 28.2934 16.0134C28.2934 15.4934 27.9467 14.9867 27.3334 14.5734C26.1734 13.8 24.4134 13.4934 22.76 13.7867C22.2134 13.8934 21.6934 13.52 21.6 12.9734C21.5067 12.4267 21.8667 11.9067 22.4134 11.8134C24.5867 11.4267 26.84 11.84 28.44 12.9067C29.6134 13.6934 30.2934 14.8134 30.2934 16.0134C30.2934 17.2 29.6267 18.3334 28.44 19.1334C27.2267 19.9334 25.6534 20.3734 24.0134 20.3734Z" fill="#6A50BA"/>
    <path d="M7.96002 10.5467C7.94668 10.5467 7.93335 10.5467 7.93335 10.5467C5.53335 10.4667 3.65335 8.51999 3.64001 6.11999C3.64001 3.66665 5.64002 1.66666 8.08002 1.66666C10.52 1.66666 12.52 3.66666 12.52 6.10666C12.52 8.51999 10.64 10.4667 8.24002 10.5467L7.96002 9.54666L8.05335 10.5467C8.02668 10.5467 7.98668 10.5467 7.96002 10.5467ZM8.09335 8.54666C8.17335 8.54666 8.24002 8.54665 8.32002 8.55999C9.50668 8.50665 10.5467 7.43999 10.5467 6.11999C10.5467 4.77332 9.45335 3.67998 8.10668 3.67998C6.76002 3.67998 5.66668 4.77332 5.66668 6.11999C5.66668 7.42665 6.68001 8.47999 7.97335 8.55999C7.98668 8.54665 8.04002 8.54666 8.09335 8.54666Z" fill="#6A50BA"/>
    <path d="M7.94662 20.3734C6.30662 20.3734 4.73329 19.9334 3.51996 19.1334C2.34663 18.3467 1.66663 17.2134 1.66663 16.0134C1.66663 14.8267 2.34663 13.6934 3.51996 12.9067C5.11996 11.84 7.37329 11.4267 9.54663 11.8134C10.0933 11.9067 10.4533 12.4267 10.36 12.9734C10.2666 13.52 9.74663 13.8934 9.19996 13.7867C7.54663 13.4934 5.79996 13.8 4.62663 14.5734C3.99996 14.9867 3.66663 15.4934 3.66663 16.0134C3.66663 16.5334 4.01329 17.0534 4.62663 17.4667C5.78663 18.24 7.51996 18.5467 9.15996 18.2667C9.70662 18.1734 10.2266 18.5467 10.32 19.08C10.4133 19.6267 10.0533 20.1467 9.50663 20.24C8.98663 20.3334 8.46662 20.3734 7.94662 20.3734Z" fill="#6A50BA"/>
    <path d="M15.9997 20.5067C15.9597 20.5067 15.9331 20.5067 15.8931 20.5067H15.8264C13.3064 20.4267 11.4264 18.48 11.4264 16.08C11.4264 13.6267 13.4264 11.64 15.8664 11.64C18.3064 11.64 20.3064 13.64 20.3064 16.08C20.2931 18.4933 18.4131 20.44 16.0131 20.52C16.0131 20.5067 16.0131 20.5067 15.9997 20.5067ZM15.8664 13.6267C14.5197 13.6267 13.4264 14.72 13.4264 16.0667C13.4264 17.3867 14.4531 18.4533 15.7731 18.5067C15.7864 18.4933 15.8931 18.4933 16.0131 18.5067C17.3064 18.44 18.3064 17.3733 18.3197 16.0667C18.3197 14.7333 17.2264 13.6267 15.8664 13.6267Z" fill="#6A50BA"/>
    <path d="M15.9998 30.3466C14.3998 30.3466 12.7998 29.9333 11.5598 29.0933C10.3864 28.3066 9.70642 27.1866 9.70642 25.9866C9.70642 24.8 10.3731 23.6533 11.5598 22.8666C14.0531 21.2133 17.9598 21.2133 20.4398 22.8666C21.6131 23.6533 22.2931 24.7733 22.2931 25.9733C22.2931 27.16 21.6264 28.3066 20.4398 29.0933C19.1998 29.92 17.5998 30.3466 15.9998 30.3466ZM12.6664 24.5466C12.0398 24.96 11.7064 25.48 11.7064 26C11.7064 26.52 12.0531 27.0266 12.6664 27.44C14.4664 28.6533 17.5198 28.6533 19.3198 27.44C19.9464 27.0266 20.2798 26.5066 20.2798 25.9866C20.2798 25.4666 19.9331 24.96 19.3198 24.5466C17.5331 23.3333 14.4798 23.3466 12.6664 24.5466Z" fill="#6A50BA"/>
</svg>
